<svg xmlns="http://www.w3.org/2000/svg" width="800" height="600" viewBox="0 0 800 600"><defs><filter id="s" x="-20%" y="-20%" width="140%" height="150%"><feDropShadow dx="0" dy="12" stdDeviation="16" flood-color="#334155" flood-opacity=".10"/></filter></defs><rect width="800" height="600" fill="#f8fafc"/><circle cx="400" cy="300" r="248" fill="#f1f5f9"/><circle cx="650" cy="160" r="25" fill="#dbeafe"/><circle cx="155" cy="390" r="17" fill="#d1fae5"/><path d="M195 130h26m-13-13v26M600 445h25" stroke="#94a3b8" stroke-width="7" stroke-linecap="round"/><rect x="72" y="52" width="656" height="496" rx="40" fill="#fff" filter="url(#s)"/><path d="M210 485h380" stroke="#e2e8f0" stroke-width="10" stroke-linecap="round"/><g stroke-linecap="round" stroke-linejoin="round"><rect x="245" y="185" width="145" height="250" rx="22" fill="#fff" stroke="#cbd5e1" stroke-width="8"/><rect x="410" y="160" width="145" height="275" rx="22" fill="#e0f2fe" stroke="#0284c7" stroke-width="8"/><path d="M275 230h85m-85 30h65m-65 90h85m-85 30h55" stroke="#94a3b8" stroke-width="10" stroke-linecap="round"/><circle cx="482" cy="220" r="32" fill="#fff"/><path d="M466 220h32m-16-16v32" stroke="#10b981" stroke-width="8" stroke-linecap="round"/><path d="m445 345 28 28 47-57" fill="none" stroke="#0284c7" stroke-width="12" stroke-linecap="round" stroke-linejoin="round"/></g></svg>