<svg xmlns="http://www.w3.org/2000/svg" width="800" height="600" viewBox="0 0 800 600"><defs><filter id="s" x="-20%" y="-20%" width="140%" height="150%"><feDropShadow dx="0" dy="12" stdDeviation="16" flood-color="#334155" flood-opacity=".10"/></filter></defs><rect width="800" height="600" fill="#f8fafc"/><circle cx="400" cy="300" r="248" fill="#f1f5f9"/><circle cx="650" cy="160" r="25" fill="#dbeafe"/><circle cx="155" cy="390" r="17" fill="#d1fae5"/><path d="M195 130h26m-13-13v26M600 445h25" stroke="#94a3b8" stroke-width="7" stroke-linecap="round"/><rect x="72" y="52" width="656" height="496" rx="40" fill="#fff" filter="url(#s)"/><path d="M210 485h380" stroke="#e2e8f0" stroke-width="10" stroke-linecap="round"/><g stroke-linecap="round" stroke-linejoin="round"><rect x="270" y="140" width="260" height="320" rx="22" fill="#fff" stroke="#cbd5e1" stroke-width="8"/><path d="M320 205h160M320 238h105M320 300h160M320 333h125M320 395h160" stroke="#cbd5e1" stroke-width="12" stroke-linecap="round"/><circle cx="493" cy="237" r="30" fill="#fee2e2"/><path d="m481 225 24 24m0-24-24 24" stroke="#ef4444" stroke-width="9" stroke-linecap="round"/><circle cx="493" cy="332" r="30" fill="#fee2e2"/><path d="m481 320 24 24m0-24-24 24" stroke="#ef4444" stroke-width="9" stroke-linecap="round"/><circle cx="493" cy="427" r="30" fill="#dcfce7"/><path d="m480 427 10 10 19-22" fill="none" stroke="#10b981" stroke-width="8" stroke-linecap="round" stroke-linejoin="round"/></g></svg>