<svg xmlns="http://www.w3.org/2000/svg" width="800" height="600" viewBox="0 0 800 600"><defs><filter id="s" x="-20%" y="-20%" width="140%" height="150%"><feDropShadow dx="0" dy="12" stdDeviation="16" flood-color="#334155" flood-opacity=".10"/></filter></defs><rect width="800" height="600" fill="#f8fafc"/><circle cx="400" cy="300" r="248" fill="#f1f5f9"/><circle cx="650" cy="160" r="25" fill="#dbeafe"/><circle cx="155" cy="390" r="17" fill="#d1fae5"/><path d="M195 130h26m-13-13v26M600 445h25" stroke="#94a3b8" stroke-width="7" stroke-linecap="round"/><rect x="72" y="52" width="656" height="496" rx="40" fill="#fff" filter="url(#s)"/><path d="M210 485h380" stroke="#e2e8f0" stroke-width="10" stroke-linecap="round"/><g stroke-linecap="round" stroke-linejoin="round"><path d="M400 150 545 205v100c-10 86-73 137-145 174-72-37-135-88-145-174V205z" fill="#e0f2fe"/><path d="M400 183 515 226v78c-8 66-54 106-115 140-61-34-107-74-115-140v-78z" fill="#fff" stroke="#cbd5e1" stroke-width="8"/><circle cx="400" cy="285" r="49" fill="#bae6fd"/><path d="M382 285h36m-18-18v36" stroke="#0284c7" stroke-width="10" stroke-linecap="round"/><path d="M348 365h104m-80 24h56" stroke="#94a3b8" stroke-width="9" stroke-linecap="round"/><circle cx="530" cy="350" r="30" fill="#10b981"/><path d="m516 350 10 11 19-23" fill="none" stroke="#fff" stroke-width="8" stroke-linecap="round" stroke-linejoin="round"/></g></svg>