<svg xmlns="http://www.w3.org/2000/svg" width="800" height="600" viewBox="0 0 800 600"><defs><filter id="s" x="-20%" y="-20%" width="140%" height="150%"><feDropShadow dx="0" dy="12" stdDeviation="16" flood-color="#334155" flood-opacity=".10"/></filter></defs><rect width="800" height="600" fill="#f8fafc"/><circle cx="400" cy="300" r="248" fill="#f1f5f9"/><circle cx="140" cy="150" r="24" fill="#bae6fd"/><circle cx="660" cy="420" r="18" fill="#d1fae5"/><path d="M590 120h28m-14-14v28M170 430h24" stroke="#94a3b8" stroke-width="7" stroke-linecap="round"/><rect x="72" y="52" width="656" height="496" rx="40" fill="#fff" filter="url(#s)"/><path d="M210 485h380" stroke="#e2e8f0" stroke-width="10" stroke-linecap="round"/><g stroke-linecap="round" stroke-linejoin="round"><circle cx="400" cy="300" r="150" fill="#e0f2fe"/><path d="M400 175v250m-125-125h250" stroke="#94a3b8" stroke-width="11" stroke-linecap="round"/><path d="M320 205h160" stroke="#0284c7" stroke-width="13" stroke-linecap="round"/><circle cx="320" cy="205" r="24" fill="#0284c7"/><circle cx="480" cy="205" r="24" fill="#10b981"/><rect x="330" y="280" width="140" height="90" rx="18" fill="#fff" stroke="#cbd5e1" stroke-width="8"/><path d="m360 327 25 24 53-57" fill="none" stroke="#10b981" stroke-width="11" stroke-linecap="round" stroke-linejoin="round"/><path d="M350 405h100" stroke="#64748b" stroke-width="10" stroke-linecap="round"/></g></svg>