<svg xmlns="http://www.w3.org/2000/svg" width="1200" height="750" viewBox="0 0 1200 750" role="img" aria-labelledby="title desc"><title id="title">???? ???????</title><desc id="desc">????? ?????? ? ??? ?????? ???? ????? ServiceAI</desc><defs><linearGradient id="bg" x1="0" y1="0" x2="1" y2="1"><stop stop-color="#e7dcff"/><stop offset="1" stop-color="#f8fbff"/></linearGradient><linearGradient id="band" x1="0" y1="0" x2="1" y2="0"><stop stop-color="#8357c5"/><stop offset="1" stop-color="#e7dcff"/></linearGradient><filter id="shadow" x="-20%" y="-20%" width="140%" height="140%"><feDropShadow dx="0" dy="16" stdDeviation="18" flood-color="#22334a" flood-opacity=".12"/></filter></defs><rect width="1200" height="750" rx="42" fill="url(#bg)"/><circle cx="1050" cy="110" r="170" fill="#8357c5" opacity=".08"/><circle cx="160" cy="640" r="210" fill="#e7dcff" opacity=".7"/><path d="M0 610Q300 500 600 650T1200 570V750H0Z" fill="#fff" opacity=".72"/><rect x="58" y="60" width="1084" height="630" rx="34" fill="#fff" opacity=".54" stroke="#fff" stroke-width="3"/><g filter="url(#shadow)"><path d="M500 360h240M535 330V240m85 90V185m85 145V220" stroke="#d5dceb" stroke-width="20" stroke-linecap="round"/><path d="m520 205 75-43 65 30 82-63" fill="none" stroke="#8357c5" stroke-width="13" stroke-linecap="round" stroke-linejoin="round"/><path d="m715 129 28 0-2 28" fill="none" stroke="#29a984" stroke-width="12" stroke-linecap="round" stroke-linejoin="round"/></g><rect x="80" y="86" width="12" height="80" rx="6" fill="url(#band)"/><text x="1080" y="117" text-anchor="end" direction="rtl" font-family="Arial,sans-serif" font-size="24" font-weight="700" fill="#8357c5">???? ???? ? SERVICEAI</text><text x="1080" y="565" text-anchor="end" direction="rtl" font-family="Arial,sans-serif" font-size="42" font-weight="700" fill="#1e3552">???? ???????</text><text x="1080" y="615" text-anchor="end" direction="rtl" font-family="Arial,sans-serif" font-size="25" fill="#657790">????? ??????</text><rect x="80" y="652" width="1040" height="4" rx="2" fill="url(#band)" opacity=".6"/><text x="1080" y="680" text-anchor="end" font-family="Arial,sans-serif" font-size="15" letter-spacing="3" fill="#74869c">14 / 26</text></svg>