<svg xmlns="http://www.w3.org/2000/svg" width="800" height="600" viewBox="0 0 800 600"><defs><filter id="s" x="-20%" y="-20%" width="140%" height="150%"><feDropShadow dx="0" dy="12" stdDeviation="16" flood-color="#334155" flood-opacity=".10"/></filter></defs><rect width="800" height="600" fill="#f8fafc"/><circle cx="400" cy="300" r="248" fill="#f1f5f9"/><circle cx="140" cy="150" r="24" fill="#bae6fd"/><circle cx="660" cy="420" r="18" fill="#d1fae5"/><path d="M590 120h28m-14-14v28M170 430h24" stroke="#94a3b8" stroke-width="7" stroke-linecap="round"/><rect x="72" y="52" width="656" height="496" rx="40" fill="#fff" filter="url(#s)"/><path d="M210 485h380" stroke="#e2e8f0" stroke-width="10" stroke-linecap="round"/><g stroke-linecap="round" stroke-linejoin="round"><circle cx="400" cy="295" r="150" fill="#e0f2fe"/><rect x="310" y="160" width="180" height="260" rx="22" fill="#fff" stroke="#cbd5e1" stroke-width="9"/><circle cx="400" cy="225" r="34" fill="#bae6fd"/><path d="M356 290h88m-88 28h88m-88 28h60" stroke="#94a3b8" stroke-width="10" stroke-linecap="round"/><rect x="250" y="375" width="120" height="86" rx="20" fill="#10b981"/><path d="M274 402h70m-70 25h50" stroke="#fff" stroke-width="8" stroke-linecap="round"/><path d="m494 392 22-22 22 22v54h-44z" fill="#fbbf24"/><circle cx="516" cy="391" r="12" fill="#fff"/></g></svg>