<svg xmlns="http://www.w3.org/2000/svg" width="800" height="600" viewBox="0 0 800 600"><defs><filter id="s" x="-20%" y="-20%" width="140%" height="150%"><feDropShadow dx="0" dy="12" stdDeviation="16" flood-color="#334155" flood-opacity=".10"/></filter></defs><rect width="800" height="600" fill="#f8fafc"/><circle cx="400" cy="300" r="248" fill="#f1f5f9"/><circle cx="140" cy="150" r="24" fill="#bae6fd"/><circle cx="660" cy="420" r="18" fill="#d1fae5"/><path d="M590 120h28m-14-14v28M170 430h24" stroke="#94a3b8" stroke-width="7" stroke-linecap="round"/><rect x="72" y="52" width="656" height="496" rx="40" fill="#fff" filter="url(#s)"/><path d="M210 485h380" stroke="#e2e8f0" stroke-width="10" stroke-linecap="round"/><g stroke-linecap="round" stroke-linejoin="round"><rect x="275" y="145" width="250" height="310" rx="22" fill="#e0f2fe"/><rect x="290" y="130" width="220" height="310" rx="20" fill="#fff" stroke="#cbd5e1" stroke-width="8"/><circle cx="350" cy="195" r="27" fill="#bae6fd"/><path d="M397 184h74M397 207h55M325 258h150M325 288h150M325 318h128M325 348h150" stroke="#94a3b8" stroke-width="11" stroke-linecap="round"/><circle cx="480" cy="390" r="47" fill="#10b981"/><path d="m457 390 16 17 33-38" fill="none" stroke="#fff" stroke-width="12" stroke-linecap="round" stroke-linejoin="round"/></g></svg>